<svg id="Group_630" data-name="Group 630" xmlns="http://www.w3.org/2000/svg" width="26.435" height="32" viewBox="0 0 26.435 32">
  <path id="Path_186" data-name="Path 186" d="M29.7,31.24a.7.7,0,0,0-.526-.24H9.7a.7.7,0,0,0-.689.794L10.4,41.533a.7.7,0,0,0,.689.6h16.7a.7.7,0,0,0,.689-.6l1.391-9.739A.7.7,0,0,0,29.7,31.24Z" transform="translate(-6.217 -10.13)" fill="#19191c"/>
  <path id="Path_187" data-name="Path 187" d="M30.652,4.478a6.95,6.95,0,0,0-6.261,3.939V1.7A.7.7,0,1,0,23,1.7V19.783a.7.7,0,0,0,1.391,0V14.217h.7a6.957,6.957,0,0,0,6.957-6.957V4.478Z" transform="translate(-10.478 -1)" fill="#2d2f83"/>
  <path id="Path_188" data-name="Path 188" d="M30.739,31.174H5.7a.7.7,0,0,1-.7-.7V27.7a.7.7,0,0,1,.7-.7H30.739a.7.7,0,0,1,.7.7v2.783A.7.7,0,0,1,30.739,31.174Z" transform="translate(-5 -8.913)" fill="gray"/>
</svg>
