<svg id="Group_634" data-name="Group 634" xmlns="http://www.w3.org/2000/svg" width="26.435" height="32" viewBox="0 0 26.435 32">
  <path id="Path_192" data-name="Path 192" d="M31.435,2.391V24.652L23.087,33H6.391A1.391,1.391,0,0,1,5,31.609V2.391A1.391,1.391,0,0,1,6.391,1H30.043A1.391,1.391,0,0,1,31.435,2.391Z" transform="translate(-5 -1)" fill="#ccc9c9"/>
  <path id="Path_193" data-name="Path 193" d="M31,43.348V36.391A1.391,1.391,0,0,1,32.391,35h6.957Z" transform="translate(-12.913 -11.348)" fill="#2d2f83"/>
  <path id="Path_194" data-name="Path 194" d="M27.609,12.391H13.7A.7.7,0,1,1,13.7,11H27.609a.7.7,0,0,1,0,1.391Z" transform="translate(-7.435 -4.043)" fill="#19191c"/>
  <path id="Path_195" data-name="Path 195" d="M27.609,22.391H13.7A.7.7,0,1,1,13.7,21H27.609a.7.7,0,0,1,0,1.391Z" transform="translate(-7.435 -7.087)" fill="#19191c"/>
  <path id="Path_196" data-name="Path 196" d="M19.261,32.391H13.7A.7.7,0,1,1,13.7,31h5.565a.7.7,0,0,1,0,1.391Z" transform="translate(-7.435 -10.13)" fill="#19191c"/>
</svg>
