<svg id="Group_632" data-name="Group 632" xmlns="http://www.w3.org/2000/svg" width="30.133" height="32" viewBox="0 0 30.133 32">
  <rect id="Rectangle_190" data-name="Rectangle 190" width="8.218" height="11.642" transform="translate(10.956 15.564)" fill="gray"/>
  <path id="Path_189" data-name="Path 189" d="M28.065,12v5.479a7.533,7.533,0,1,1-15.067,0V12Z" transform="translate(-5.466 -4.655)" fill="#ccc9c9" fill-rule="evenodd"/>
  <path id="Path_190" data-name="Path 190" d="M13,8.619A6.248,6.248,0,0,1,16.87,3.128l5.072-1.811a.789.789,0,0,1,.948.378l1.066,2.131a4.112,4.112,0,0,1,4.109,4.109v4.109A3.424,3.424,0,0,0,24.641,8.62H16.423A3.424,3.424,0,0,0,13,12.044V8.619Z" transform="translate(-5.466 -1.274)" fill="#19191c" fill-rule="evenodd"/>
  <path id="Path_191" data-name="Path 191" d="M32.133,40.855A3.411,3.411,0,0,0,30.25,37.97L21.176,34l-4.11,4.109L12.97,34,3.886,37.97A3.415,3.415,0,0,0,2,40.855V42.9a.687.687,0,0,0,.686.687H31.447a.682.682,0,0,0,.686-.687Z" transform="translate(-2 -11.588)" fill="#2d2f83" fill-rule="evenodd"/>
</svg>
