<svg xmlns="http://www.w3.org/2000/svg" width="14" height="11.317" viewBox="0 0 14 11.317">
  <path id="Path_184" data-name="Path 184" d="M14,3.642a5.254,5.254,0,0,1-1.633.467A3.105,3.105,0,0,0,13.65,2.533a5.3,5.3,0,0,1-1.808.7,2.824,2.824,0,0,0-2.1-.933A2.863,2.863,0,0,0,6.883,5.158a2.187,2.187,0,0,0,.058.642A8.054,8.054,0,0,1,.992,2.767,2.633,2.633,0,0,0,.583,4.225,2.929,2.929,0,0,0,1.867,6.617a2.352,2.352,0,0,1-1.283-.35v.058a2.829,2.829,0,0,0,2.275,2.8,2.955,2.955,0,0,1-.758.117,1.615,1.615,0,0,1-.525-.058,2.765,2.765,0,0,0,2.683,1.983A5.835,5.835,0,0,1,.7,12.392a2.84,2.84,0,0,1-.7-.058,8.166,8.166,0,0,0,4.375,1.283A8.093,8.093,0,0,0,12.542,5.45V5.1A6.912,6.912,0,0,0,14,3.642Z" transform="translate(0 -2.3)" fill="#1ca1f1"/>
</svg>
