<svg xmlns="http://www.w3.org/2000/svg" width="21" height="21.472" viewBox="0 0 21 21.472">
  <g id="undo-29" transform="translate(0.5 0.563)">
    <path id="Path_212" data-name="Path 212" d="M22,12A10.029,10.029,0,0,0,12,2,9.836,9.836,0,0,0,3.1,7.5" transform="translate(-2 -1.6)" fill="none" stroke="currentcolor" stroke-linecap="round" stroke-linejoin="round" stroke-miterlimit="10" stroke-width="1"/>
    <path id="Path_213" data-name="Path 213" d="M2.3,1.6l.8,5.9,6-.8" transform="translate(-2 -1.6)" fill="none" stroke="currentcolor" stroke-linecap="round" stroke-linejoin="round" stroke-miterlimit="10" stroke-width="1"/>
    <path id="Path_214" data-name="Path 214" d="M19.26,18.885A9.663,9.663,0,0,0,20.9,16.5" transform="translate(-2 -1.6)" fill="none" stroke="currentcolor" stroke-linecap="round" stroke-linejoin="round" stroke-miterlimit="10" stroke-width="1"/>
    <path id="Path_215" data-name="Path 215" d="M12.25,22a10.044,10.044,0,0,0,3.2-.6" transform="translate(-2 -1.6)" fill="none" stroke="currentcolor" stroke-linecap="round" stroke-linejoin="round" stroke-miterlimit="10" stroke-width="1"/>
    <path id="Path_216" data-name="Path 216" d="M4.866,18.99a10.09,10.09,0,0,0,2.695,1.964" transform="translate(-2 -1.6)" fill="none" stroke="currentcolor" stroke-linecap="round" stroke-linejoin="round" stroke-miterlimit="10" stroke-width="1"/>
    <path id="Path_217" data-name="Path 217" d="M2,12a9.92,9.92,0,0,0,.461,2.994" transform="translate(-2 -1.6)" fill="none" stroke="currentcolor" stroke-linecap="round" stroke-linejoin="round" stroke-miterlimit="10" stroke-width="1"/>
  </g>
</svg>
