<svg id="Group_466" data-name="Group 466" xmlns="http://www.w3.org/2000/svg" width="16" height="16" viewBox="0 0 16 16">
  <rect id="Rectangle_159" data-name="Rectangle 159" width="2" height="6" transform="translate(5 7)" fill="#2d2f83"/>
  <rect id="Rectangle_160" data-name="Rectangle 160" width="2" height="6" transform="translate(9 7)" fill="#2d2f83"/>
  <path id="Path_157" data-name="Path 157" d="M12,1a.945.945,0,0,0-1-1H5A.945.945,0,0,0,4,1V3H0V5H1V15a.945.945,0,0,0,1,1H14a.945.945,0,0,0,1-1V5h1V3H12ZM6,2h4V3H6Zm7,3v9H3V5Z" fill="#2d2f83"/>
</svg>
