<svg id="layout-11" xmlns="http://www.w3.org/2000/svg" width="16" height="16" viewBox="0 0 16 16">
  <g id="Group_171" data-name="Group 171">
    <path id="Path_70" data-name="Path 70" d="M6,9H1A1,1,0,0,1,0,8V1A1,1,0,0,1,1,0H6A1,1,0,0,1,7,1V8A1,1,0,0,1,6,9Z" fill="#63e2da"/>
    <path id="Path_71" data-name="Path 71" d="M6,16H1a1,1,0,0,1-1-1V12a1,1,0,0,1,1-1H6a1,1,0,0,1,1,1v3A1,1,0,0,1,6,16Z" fill="#1ca1f1"/>
    <path id="Path_72" data-name="Path 72" d="M15,6H10A1,1,0,0,1,9,5V1a1,1,0,0,1,1-1h5a1,1,0,0,1,1,1V5A1,1,0,0,1,15,6Z" fill="#1ca1f1"/>
    <path id="Path_73" data-name="Path 73" d="M15,16H10a1,1,0,0,1-1-1V9a1,1,0,0,1,1-1h5a1,1,0,0,1,1,1v6A1,1,0,0,1,15,16Z" fill="#63e2da"/>
  </g>
</svg>
