<svg id="bullet-list-70" xmlns="http://www.w3.org/2000/svg" width="16" height="16" viewBox="0 0 16 16">
  <g id="Group_174" data-name="Group 174">
    <path id="Path_74" data-name="Path 74" d="M15,0H7A.945.945,0,0,0,6,1V3A.945.945,0,0,0,7,4h8a.945.945,0,0,0,1-1V1A.945.945,0,0,0,15,0Z" fill="#1d2024"/>
    <path id="Path_75" data-name="Path 75" d="M15,6H7A.945.945,0,0,0,6,7V9a.945.945,0,0,0,1,1h8a.945.945,0,0,0,1-1V7A.945.945,0,0,0,15,6Z" fill="#1d2024"/>
    <path id="Path_76" data-name="Path 76" d="M15,12H7a.945.945,0,0,0-1,1v2a.945.945,0,0,0,1,1h8a.945.945,0,0,0,1-1V13A.945.945,0,0,0,15,12Z" fill="#1d2024"/>
    <path id="Path_77" data-name="Path 77" d="M3,0H1A.945.945,0,0,0,0,1V3A.945.945,0,0,0,1,4H3A.945.945,0,0,0,4,3V1A.945.945,0,0,0,3,0Z" fill="#1d2024"/>
    <path id="Path_78" data-name="Path 78" d="M3,6H1A.945.945,0,0,0,0,7V9a.945.945,0,0,0,1,1H3A.945.945,0,0,0,4,9V7A.945.945,0,0,0,3,6Z" fill="#1d2024"/>
    <path id="Path_79" data-name="Path 79" d="M3,12H1a.945.945,0,0,0-1,1v2a.945.945,0,0,0,1,1H3a.945.945,0,0,0,1-1V13A.945.945,0,0,0,3,12Z" fill="#1d2024"/>
  </g>
</svg>
